<svg id="Calque_1" data-name="Calque 1" xmlns="http://www.w3.org/2000/svg" viewBox="0 0 33.92 28.86"><defs><style>.cls-1{fill:#9a9a9a;opacity:0.87;isolation:isolate;}</style></defs><path id="heart" class="cls-1" d="M45,540.77a2,2,0,0,1-1.31-.47c-1.37-1.14-2.69-2.22-3.86-3.17h0a70.23,70.23,0,0,1-8.42-7.56c-2.3-2.65-3.37-5.16-3.37-7.9a9.94,9.94,0,0,1,2.69-6.93,9.31,9.31,0,0,1,6.79-2.82,8.72,8.72,0,0,1,5.32,1.76A10.48,10.48,0,0,1,45,515.83a10.43,10.43,0,0,1,2.15-2.15,8.77,8.77,0,0,1,5.33-1.76,9.31,9.31,0,0,1,6.79,2.82A9.94,9.94,0,0,1,62,521.67c0,2.74-1.07,5.25-3.37,7.9a70.83,70.83,0,0,1-8.41,7.55c-1.17,1-2.49,2-3.87,3.18A2,2,0,0,1,45,540.77Zm-7.48-26.95A7.35,7.35,0,0,0,32.19,516,8.07,8.07,0,0,0,30,521.67c0,2.3.9,4.37,2.91,6.69a69.2,69.2,0,0,0,8.17,7.32h0c1.17,1,2.5,2,3.88,3.19,1.38-1.16,2.71-2.24,3.89-3.2a69.2,69.2,0,0,0,8.17-7.32C59.07,526,60,524,60,521.66A8.07,8.07,0,0,0,57.81,516a7.3,7.3,0,0,0-5.33-2.2,6.76,6.76,0,0,0-4.11,1.36,9.41,9.41,0,0,0-2.29,2.54,1.3,1.3,0,0,1-1.78.38,1.37,1.37,0,0,1-.38-.38,9.41,9.41,0,0,0-2.29-2.54A6.78,6.78,0,0,0,37.52,513.82Z" transform="translate(-28.04 -511.92)"/></svg>