<svg id="Capa_1" data-name="Capa 1" xmlns="http://www.w3.org/2000/svg" viewBox="0 0 1427.73 292.4"><defs><style>.cls-1{fill:#e79b00;}.cls-2{fill:#707070;}</style></defs><path class="cls-1" d="M283.86,70.13c-.66-5.73-4.37-11.13-10.73-10.8-19.39,1-73.69,15.86-85.73-5.73C176.33,33.33,159.91,13.5,138.78,3,100.89-15.5,91.19,55.91,85.11,79.6,62.67,78.28-1.72,76.5,0,115.3,1.68,150,43,165.87,72.74,175.68c-7,34-16.09,67.75-22.44,101.8-1,5.4,1.31,12.12,7.66,13.44,35.78,7.38,52.55-14.21,75.77-38.12,30.88-31.73,94.82,35,132.38,38.78,4.71.33,9.75-3.75,10.73-8,10.08-44.51-15.76-84.95-45.22-116.68C261.09,147.39,287.19,100.87,283.86,70.13Z" transform="translate(0 0.01)"/><path class="cls-2" d="M1141.55,70.13c-.66-5.73-4.4-11.13-10.79-10.8-19.51,1-74.15,15.86-86.27-5.73C1033.36,33.33,1016.83,13.5,995.57,3c-38.12-18.51-47.93,52.88-54,76.57C919,78.28,854.19,76.5,856,115.3c1.65,34.7,43.18,50.57,73.15,60.38-7,34-16.19,67.75-22.58,101.8-1,5.4,1.32,12.12,7.71,13.44,36,7.38,52.88-14.21,76.24-38.12,31.07-31.73,95.41,35,133.2,38.78,4.74.33,9.81-3.75,10.8-8,10.14-44.51-15.86-84.95-45.5-116.68C1118.64,147.39,1144.86,100.87,1141.55,70.13Z" transform="translate(0 0.01)"/><path class="cls-1" d="M855.65,70.13c-.66-5.73-4.4-11.13-10.79-10.8-19.51,1-74.15,15.86-86.27-5.73C747.46,33.33,730.93,13.5,709.67,3c-38.12-18.51-47.93,52.88-54,76.57-22.58-1.32-87.37-3.08-85.6,35.7,1.65,34.7,43.18,50.57,73.15,60.38-7,34-16.19,67.75-22.58,101.8-1,5.4,1.32,12.12,7.71,13.44,36,7.38,52.88-14.21,76.24-38.12,31.07-31.73,95.41,35,133.2,38.78,4.74.33,9.81-3.75,10.8-8,10.14-44.51-15.86-84.95-45.5-116.68C832.74,147.39,859,100.87,855.65,70.13Z" transform="translate(0 0.01)"/><path class="cls-1" d="M569.75,70.13c-.66-5.73-4.4-11.13-10.79-10.8-19.51,1-74.15,15.86-86.27-5.73C461.56,33.33,445,13.5,423.77,3c-38.12-18.51-47.93,52.88-54,76.57-22.58-1.32-87.37-3.1-85.58,35.7,1.65,34.7,43.18,50.57,73.15,60.38-7,34-16.19,67.75-22.58,101.8-1,5.4,1.32,12.12,7.71,13.44,36,7.38,52.88-14.21,76.24-38.12,31.07-31.73,95.41,35,133.2,38.78,4.74.33,9.81-3.75,10.8-8,10.14-44.51-15.86-84.95-45.5-116.68C546.84,147.39,573.06,100.87,569.75,70.13Z" transform="translate(0 0.01)"/><path class="cls-2" d="M1427.45,70.13c-.66-5.73-4.4-11.13-10.79-10.8-19.51,1-74.15,15.86-86.27-5.73-11.13-20.27-27.66-40.1-48.92-50.57-38.12-18.51-47.93,52.88-54,76.57-22.58-1.32-87.37-3.08-85.6,35.7,1.65,34.7,43.18,50.57,73.15,60.38-7,34-16.19,67.75-22.58,101.8-1,5.4,1.32,12.12,7.71,13.44,36,7.38,52.88-14.21,76.24-38.12,31.07-31.73,95.41,35,133.2,38.78,4.74.33,9.81-3.75,10.8-8,10.14-44.51-15.86-84.95-45.5-116.68C1404.54,147.39,1430.76,100.87,1427.45,70.13Z" transform="translate(0 0.01)"/></svg>